<svg width="48" height="48" viewBox="0 0 48 48" fill="none" xmlns="http://www.w3.org/2000/svg">
<g clip-path="url(#clip0_873_6)">
<rect width="48" height="48" fill="black"/>
<path d="M15.017 23.6364C15.017 24.608 14.8281 25.4276 14.4503 26.0952C14.0724 26.7599 13.5625 27.2642 12.9205 27.608C12.2784 27.9489 11.5625 28.1193 10.7727 28.1193C9.97727 28.1193 9.25852 27.9474 8.61648 27.6037C7.97727 27.2571 7.46875 26.7514 7.09091 26.0866C6.71591 25.419 6.52841 24.6023 6.52841 23.6364C6.52841 22.6648 6.71591 21.8466 7.09091 21.1818C7.46875 20.5142 7.97727 20.0099 8.61648 19.669C9.25852 19.3253 9.97727 19.1534 10.7727 19.1534C11.5625 19.1534 12.2784 19.3253 12.9205 19.669C13.5625 20.0099 14.0724 20.5142 14.4503 21.1818C14.8281 21.8466 15.017 22.6648 15.017 23.6364ZM12.5795 23.6364C12.5795 23.1136 12.5099 22.6733 12.3707 22.3153C12.2344 21.9545 12.0313 21.6818 11.7614 21.4972C11.4943 21.3097 11.1648 21.2159 10.7727 21.2159C10.3807 21.2159 10.0497 21.3097 9.77983 21.4972C9.51278 21.6818 9.30966 21.9545 9.17045 22.3153C9.03409 22.6733 8.96591 23.1136 8.96591 23.6364C8.96591 24.1591 9.03409 24.6009 9.17045 24.9616C9.30966 25.3196 9.51278 25.5923 9.77983 25.7798C10.0497 25.9645 10.3807 26.0568 10.7727 26.0568C11.1648 26.0568 11.4943 25.9645 11.7614 25.7798C12.0313 25.5923 12.2344 25.3196 12.3707 24.9616C12.5099 24.6009 12.5795 24.1591 12.5795 23.6364ZM22.8244 19.2727V28H20.8471L17.6937 23.4148H17.6426V28H15.2733V19.2727H17.2846L20.3869 23.8409H20.4551V19.2727H22.8244ZM24.4177 28.1364C24.0881 28.1364 23.8054 28.0213 23.5696 27.7912C23.3367 27.5582 23.2216 27.2756 23.2245 26.9432C23.2216 26.6193 23.3367 26.3423 23.5696 26.1122C23.8054 25.8821 24.0881 25.767 24.4177 25.767C24.7302 25.767 25.0057 25.8821 25.2444 26.1122C25.4858 26.3423 25.608 26.6193 25.6108 26.9432C25.608 27.1648 25.5498 27.3665 25.4361 27.5483C25.3253 27.7273 25.1804 27.8707 25.0015 27.9787C24.8225 28.0838 24.6279 28.1364 24.4177 28.1364ZM26.0152 28V19.2727H28.3845V22.8011H28.5038L31.1288 19.2727H33.8902L30.9413 23.1591L33.9583 28H31.1288L29.1686 24.7273L28.3845 25.75V28H26.0152ZM33.7533 28V19.2727H37.5203C38.1681 19.2727 38.7348 19.3906 39.2206 19.6264C39.7064 19.8622 40.0842 20.2017 40.3541 20.6449C40.624 21.0881 40.759 21.6193 40.759 22.2386C40.759 22.8636 40.6198 23.3906 40.3413 23.8196C40.0658 24.2486 39.678 24.5724 39.178 24.7912C38.6808 25.0099 38.0999 25.1193 37.4351 25.1193H35.1851V23.2784H36.9578C37.2362 23.2784 37.4735 23.2443 37.6695 23.1761C37.8683 23.1051 38.0203 22.9929 38.1254 22.8395C38.2334 22.6861 38.2874 22.4858 38.2874 22.2386C38.2874 21.9886 38.2334 21.7855 38.1254 21.6293C38.0203 21.4702 37.8683 21.3537 37.6695 21.2798C37.4735 21.2031 37.2362 21.1648 36.9578 21.1648H36.1226V28H33.7533ZM38.8669 23.9943L41.0487 28H38.4749L36.3442 23.9943H38.8669Z" fill="#07F468"/>
</g>
<defs>
<clipPath id="clip0_873_6">
<rect width="48" height="48" fill="white"/>
</clipPath>
</defs>
</svg>
